# xmcd
#
# Track frame offsets:
#	150
#	19655
#	33285
#	45910
#	57667
#	70787
#	81712
#	92945
#	102005
#	109772
#	122502
#	139642
#	154120
#	167845
#	183840
#	196340
#
# Disc length: 2858 seconds
#
# Revision: 0
# Processed by: cddbd v1.4PL0 Copyright (c) Steve Scherf et al.
# Submitted via: audiograbber 1.80
#
DISCID=d00b2810
DTITLE=Dionne Warwick       FJGG - Soulful
DYEAR=1900
DGENRE=
TTITLE0=You've Lost That Lovin' Feelin'
TTITLE1=I'm Your Puppet
TTITLE2=The Look Of Love
TTITLE3=Make It Easy On Yourself
TTITLE4=People Got To Be Free
TTITLE5=You're All I Need To Get By
TTITLE6=We Can Work It Out
TTITLE7=Try To Remember
TTITLE8=I Love You Porgy
TTITLE9=Reach Out
TTITLE10=Hurt So Bad
TTITLE11=A Hard Day's Night
TTITLE12=Do Right Woman, Do Right Man
TTITLE13=I've Been Loving You Too Long
TTITLE14=People Get Ready
TTITLE15=Hey Jude
EXTD=
EXTT0=
EXTT1=
EXTT2=
EXTT3=
EXTT4=
EXTT5=
EXTT6=
EXTT7=
EXTT8=
EXTT9=
EXTT10=
EXTT11=
EXTT12=
EXTT13=
EXTT14=
EXTT15=
PLAYORDER=
